<?xml version="1.0" standalone="no"?>
<svg xmlns:xlink="http://www.w3.org/1999/xlink" id="wave" style="transform:rotate(180deg); transition: 0.3s" viewBox="0 0 1440 120" version="1.1" xmlns="http://www.w3.org/2000/svg"><defs><linearGradient id="sw-gradient-0" x1="0" x2="0" y1="1" y2="0"><stop stop-color="rgba(240, 240, 240, 1)" offset="0%"/><stop stop-color="rgba(240, 240, 240, 1)" offset="100%"/></linearGradient></defs><path style="transform:translate(0, 0px); opacity:1" fill="url(#sw-gradient-0)" d="M0,0L21.8,12C43.6,24,87,48,131,52C174.5,56,218,40,262,34C305.5,28,349,32,393,36C436.4,40,480,44,524,46C567.3,48,611,48,655,50C698.2,52,742,56,785,52C829.1,48,873,36,916,28C960,20,1004,16,1047,26C1090.9,36,1135,60,1178,58C1221.8,56,1265,28,1309,26C1352.7,24,1396,48,1440,54C1483.6,60,1527,48,1571,46C1614.5,44,1658,52,1702,52C1745.5,52,1789,44,1833,34C1876.4,24,1920,12,1964,16C2007.3,20,2051,40,2095,42C2138.2,44,2182,28,2225,34C2269.1,40,2313,68,2356,76C2400,84,2444,72,2487,70C2530.9,68,2575,76,2618,78C2661.8,80,2705,76,2749,78C2792.7,80,2836,88,2880,92C2923.6,96,2967,96,3011,90C3054.5,84,3098,72,3120,66L3141.8,60L3141.8,120L3120,120C3098.2,120,3055,120,3011,120C2967.3,120,2924,120,2880,120C2836.4,120,2793,120,2749,120C2705.5,120,2662,120,2618,120C2574.5,120,2531,120,2487,120C2443.6,120,2400,120,2356,120C2312.7,120,2269,120,2225,120C2181.8,120,2138,120,2095,120C2050.9,120,2007,120,1964,120C1920,120,1876,120,1833,120C1789.1,120,1745,120,1702,120C1658.2,120,1615,120,1571,120C1527.3,120,1484,120,1440,120C1396.4,120,1353,120,1309,120C1265.5,120,1222,120,1178,120C1134.5,120,1091,120,1047,120C1003.6,120,960,120,916,120C872.7,120,829,120,785,120C741.8,120,698,120,655,120C610.9,120,567,120,524,120C480,120,436,120,393,120C349.1,120,305,120,262,120C218.2,120,175,120,131,120C87.3,120,44,120,22,120L0,120Z"/></svg>